<svg xmlns="http://www.w3.org/2000/svg" xmlns:xlink="http://www.w3.org/1999/xlink" viewBox="0 0 1024 1024"><defs><style>.cls-1{fill:url(#linear-gradient);}.cls-2{fill:#af7f08;}.cls-3{font-size:251px;fill:#f451dd;font-family:ChalkboardSE-Regular, Chalkboard SE;}.cls-4,.cls-5{font-size:100px;}.cls-5{letter-spacing:0em;}.cls-6{letter-spacing:0em;}</style><linearGradient id="linear-gradient" x1="512" y1="24.86" x2="512" y2="1047.86" gradientUnits="userSpaceOnUse"><stop offset="0" stop-color="#f2f2f2"/><stop offset="0" stop-color="#f2f2f2"/><stop offset="0.6" stop-color="#dadada"/><stop offset="0.98" stop-color="#d1d1d1"/></linearGradient></defs><title>Artboard 1</title><g id="Background"><rect class="cls-1" x="0.5" y="0.5" width="1023" height="1023"/><path d="M1023,1V1023H1V1H1023m1-1H0V1024H1024V0Z"/></g><g id="Chalkboard"><rect class="cls-2" x="22.5" y="202.5" width="979" height="619"/><path d="M1001,203V821H23V203h978m1-1H22V822h980V202Z"/><rect x="71.42" y="255.17" width="881.16" height="513.67"/><path d="M952.08,255.67V768.33H71.92V255.67H952.08m1-1H70.92V769.33H953.08V254.67Z"/></g><g id="Content"><text class="cls-3" transform="translate(96.2 618.06) rotate(-3)">Ĥψ<tspan class="cls-4" x="330.31" y="0"> </tspan><tspan x="368.55" y="0">=</tspan><tspan class="cls-5" x="490.85" y="0"> </tspan><tspan class="cls-6" x="529.09" y="0">Eψ</tspan></text></g></svg>